<svg width="87" height="73" viewBox="0 0 87 73" fill="none" xmlns="http://www.w3.org/2000/svg">
<g clip-path="url(#clip0_92_16)">
<path d="M70.7532 9.97583H12.9578C11.9371 9.97583 11.1096 10.8031 11.1096 11.8237V70.9979C11.1096 72.0184 11.9371 72.8458 12.9578 72.8458H70.7532C71.7739 72.8458 72.6014 72.0184 72.6014 70.9979V11.8237C72.6014 10.8031 71.7739 9.97583 70.7532 9.97583Z" fill="white"/>
<path d="M69.9182 73H13.7927C12.2281 73 10.9552 71.7273 10.9552 70.163V12.6586C10.9552 11.0942 12.2281 9.82153 13.7927 9.82153H69.9182C71.4827 9.82153 72.7556 11.0942 72.7556 12.6586V70.163C72.7556 71.7273 71.4827 73 69.9182 73ZM13.7927 10.1301C12.3982 10.1301 11.2638 11.2643 11.2638 12.6586V70.163C11.2638 71.5572 12.3982 72.6915 13.7927 72.6915H69.9182C71.3125 72.6915 72.4469 71.5572 72.4469 70.163V12.6586C72.4469 11.2643 71.3125 10.1301 69.9182 10.1301H13.7927Z" fill="#090814"/>
<path d="M64.4072 39.2123H20.3066C19.1493 39.2123 18.2076 38.2708 18.2076 37.1137V30.2025C18.2076 29.0454 19.1493 28.104 20.3066 28.104H64.4072C65.5645 28.104 66.506 29.0454 66.506 30.2025V37.1137C66.506 38.2708 65.5645 39.2123 64.4072 39.2123ZM20.3066 28.4126C19.3194 28.4126 18.5163 29.2155 18.5163 30.2025V37.1137C18.5163 38.1007 19.3194 38.9037 20.3066 38.9037H64.4072C65.3944 38.9037 66.1974 38.1007 66.1974 37.1137V30.2025C66.1974 29.2155 65.3944 28.4126 64.4072 28.4126H20.3066Z" fill="#090814"/>
<path d="M64.4072 52.6347H20.3066C19.1493 52.6347 18.2076 51.6932 18.2076 50.536V43.6248C18.2076 42.4677 19.1493 41.5264 20.3066 41.5264H64.4072C65.5645 41.5264 66.506 42.4677 66.506 43.6248V50.536C66.506 51.6932 65.5645 52.6347 64.4072 52.6347ZM20.3066 41.8349C19.3194 41.8349 18.5163 42.6378 18.5163 43.6248V50.536C18.5163 51.5231 19.3194 52.3261 20.3066 52.3261H64.4072C65.3944 52.3261 66.1974 51.5231 66.1974 50.536V43.6248C66.1974 42.6378 65.3944 41.8349 64.4072 41.8349H20.3066Z" fill="#090814"/>
<path d="M31.4011 48.2376C31.9976 48.2376 32.4812 47.7541 32.4812 47.1576C32.4812 46.5612 31.9976 46.0776 31.4011 46.0776C30.8045 46.0776 30.3209 46.5612 30.3209 47.1576C30.3209 47.7541 30.8045 48.2376 31.4011 48.2376Z" fill="#3C58E6"/>
<path d="M35.0273 48.3147C35.6239 48.3147 36.1075 47.8312 36.1075 47.2348C36.1075 46.6383 35.6239 46.1548 35.0273 46.1548C34.4307 46.1548 33.9471 46.6383 33.9471 47.2348C33.9471 47.8312 34.4307 48.3147 35.0273 48.3147Z" fill="#3C58E6"/>
<path d="M38.7307 48.1604C39.3272 48.1604 39.8108 47.6769 39.8108 47.0805C39.8108 46.484 39.3272 46.0005 38.7307 46.0005C38.1341 46.0005 37.6505 46.484 37.6505 47.0805C37.6505 47.6769 38.1341 48.1604 38.7307 48.1604Z" fill="#3C58E6"/>
<path d="M42.434 48.1604C43.0306 48.1604 43.5142 47.6769 43.5142 47.0805C43.5142 46.484 43.0306 46.0005 42.434 46.0005C41.8375 46.0005 41.3539 46.484 41.3539 47.0805C41.3539 47.6769 41.8375 48.1604 42.434 48.1604Z" fill="#3C58E6"/>
<path d="M46.1375 48.1604C46.7341 48.1604 47.2177 47.6769 47.2177 47.0805C47.2177 46.484 46.7341 46.0005 46.1375 46.0005C45.541 46.0005 45.0574 46.484 45.0574 47.0805C45.0574 47.6769 45.541 48.1604 46.1375 48.1604Z" fill="#3C58E6"/>
<path d="M49.8409 48.1604C50.4375 48.1604 50.9211 47.6769 50.9211 47.0805C50.9211 46.484 50.4375 46.0005 49.8409 46.0005C49.2443 46.0005 48.7607 46.484 48.7607 47.0805C48.7607 47.6769 49.2443 48.1604 49.8409 48.1604Z" fill="#3C58E6"/>
<path d="M52.0784 66.9829H31.0924C28.3271 66.9829 26.0774 64.7336 26.0774 61.9688C26.0774 59.2039 28.3271 56.9546 31.0924 56.9546H52.0784C54.8436 56.9546 57.0933 59.2039 57.0933 61.9688C57.0933 64.7336 54.8436 66.9829 52.0784 66.9829Z" fill="#3C58E6"/>
<path d="M3.80385 15.4992C3.14834 15.4992 2.57195 15.0296 2.44597 14.3798L0.02541 1.89711C-0.0523471 1.49603 0.0502744 1.08366 0.306902 0.765753C0.563379 0.447999 0.944778 0.26057 1.3533 0.251831L13.0503 0.000370152C13.7334 -0.0151481 14.3123 0.458847 14.4386 1.12524L16.7327 13.2307C16.8069 13.6224 16.7085 14.0269 16.4624 14.3408C16.2164 14.6545 15.8471 14.8469 15.4491 14.8684L3.87859 15.4971C3.85357 15.4985 3.82856 15.4992 3.80385 15.4992Z" fill="white"/>
<path d="M3.04688 13.4761L5.59296 6.6106L9.83643 9.77338L11.2252 8.38484L16.0859 13.399L3.04688 13.4761Z" fill="#3C58E6"/>
<path d="M10.9166 5.99367C10.2784 5.99367 9.75928 5.47463 9.75928 4.83656C9.75928 4.19849 10.2784 3.67944 10.9166 3.67944C11.5548 3.67944 12.0739 4.19849 12.0739 4.83656C12.0739 5.47463 11.5548 5.99367 10.9166 5.99367Z" fill="#3C58E6"/>
<path d="M4.2369 62.6504C3.87223 62.6504 3.51554 62.5437 3.20346 62.3373C2.777 62.0549 2.48933 61.6228 2.39379 61.1205L0.0561191 48.8352C-0.134205 47.8345 0.494932 46.8744 1.48844 46.6496L11.9609 44.2778C12.4579 44.1656 12.9669 44.2554 13.3949 44.5308C13.8231 44.8065 14.1156 45.2331 14.2185 45.7316L16.7666 58.0733C16.9742 59.079 16.3266 60.074 15.323 60.2915L4.64 62.6068C4.50588 62.6359 4.37086 62.6504 4.2369 62.6504Z" fill="white"/>
<path d="M3.43204 51.584C3.17707 51.584 2.95028 51.4027 2.90176 51.143C2.84691 50.8498 3.04024 50.5677 3.33349 50.513L11.7999 48.9316C12.093 48.876 12.3751 49.0701 12.43 49.3633C12.4848 49.6565 12.2915 49.9385 11.9982 49.9932L3.5318 51.5746C3.49835 51.5809 3.46489 51.584 3.43204 51.584Z" fill="#090814"/>
<path d="M4.20374 54.824C3.95931 54.824 3.73795 54.657 3.67873 54.4089C3.60971 54.1189 3.78888 53.8276 4.07911 53.7585L12.0489 51.8611C12.3388 51.7924 12.6301 51.9713 12.6994 52.2614C12.7684 52.5515 12.5893 52.8427 12.299 52.9119L4.32926 54.8092C4.28722 54.8191 4.24518 54.824 4.20374 54.824Z" fill="#090814"/>
<path d="M4.74365 57.9589C4.49395 57.9589 4.26973 57.7848 4.21593 57.5307C4.15414 57.2389 4.34055 56.9523 4.63229 56.8906L10.0695 55.7393C10.3629 55.6777 10.6482 55.8639 10.7098 56.1556C10.7716 56.4475 10.5852 56.734 10.2935 56.7958L4.85622 57.947C4.81839 57.955 4.78072 57.9589 4.74365 57.9589Z" fill="#090814"/>
<path d="M83.0406 24.8546C82.9446 24.8546 82.8475 24.847 82.75 24.8318L71.9512 23.1379C71.4458 23.0585 71.0045 22.7852 70.7086 22.368C70.4126 21.9509 70.3004 21.4441 70.3924 20.9412L72.6453 8.64003C72.8291 7.6381 73.7614 6.97126 74.7699 7.11816L85.3929 8.68373C85.8966 8.75801 86.3392 9.02559 86.6389 9.43721C86.9388 9.84868 87.0577 10.3519 86.9738 10.8541L84.8968 23.2837C84.744 24.1992 83.9425 24.8546 83.0406 24.8546Z" fill="white"/>
<path d="M83.4651 14.0371C83.4322 14.0371 83.3989 14.0341 83.3655 14.0277L74.8984 12.4486C74.6052 12.3939 74.4118 12.112 74.4665 11.8188C74.5211 11.5256 74.8024 11.3311 75.0964 11.387L83.5635 12.9662C83.8567 13.0208 84.0501 13.3027 83.9954 13.5959C83.947 13.8557 83.72 14.0371 83.4651 14.0371Z" fill="#090814"/>
<path d="M82.6664 16.8631C82.642 16.8631 82.6176 16.8616 82.5927 16.8581L74.475 15.7528C74.1795 15.7126 73.9726 15.4405 74.0128 15.1449C74.0532 14.8493 74.3263 14.6423 74.6209 14.6828L82.7386 15.7881C83.0341 15.8283 83.241 16.1004 83.2008 16.396C83.1639 16.6668 82.9322 16.8631 82.6664 16.8631Z" fill="#090814"/>
<path d="M79.4075 19.7642C79.3789 19.7642 79.3498 19.7618 79.3206 19.7571L73.8341 18.8694C73.5396 18.8218 73.3396 18.5444 73.3873 18.25C73.435 17.9556 73.7105 17.7562 74.0067 17.8033L79.4933 18.691C79.7877 18.7386 79.9877 19.016 79.9401 19.3104C79.8971 19.5755 79.6679 19.7642 79.4075 19.7642Z" fill="#090814"/>
</g>
<defs>
<clipPath id="clip0_92_16">
<rect width="87" height="73" fill="white"/>
</clipPath>
</defs>
</svg>
